<?xml version="1.0" encoding="utf-8"?>
<!-- Generator: Adobe Illustrator 26.0.2, SVG Export Plug-In . SVG Version: 6.00 Build 0)  -->
<svg version="1.1" id="Layer_1" xmlns="http://www.w3.org/2000/svg" xmlns:xlink="http://www.w3.org/1999/xlink" x="0px" y="0px"
	 viewBox="0 0 16 16" style="enable-background:new 0 0 16 16;" xml:space="preserve">
<style type="text/css">
	.st0{display:none;fill:none;stroke:#191919;stroke-width:0.05;stroke-miterlimit:10;}
	.st1{display:none;stroke:#000000;stroke-width:0.05;stroke-miterlimit:10;}
	.st2{fill:#FFFFFF;}
</style>
<g>
	<circle class="st2" cx="8" cy="8.35" r="3.69"/>
	<path d="M0.38,8.4c0-4.35,3.1-7.18,7.62-7.18c4.52,0,7.63,2.84,7.63,7.18c0,4.34-3.1,7.09-7.63,7.09
		C3.48,15.49,0.38,12.74,0.38,8.4z M8,5.58c-1.53,0-2.77,1.24-2.77,2.77S6.47,11.13,8,11.13s2.77-1.24,2.77-2.77S9.53,5.58,8,5.58z
		 M8,7.13c-0.67,0-1.22,0.55-1.22,1.22S7.33,9.57,8,9.57s1.22-0.55,1.22-1.22S8.67,7.13,8,7.13z"/>
</g>
</svg>
